PathFileType	4	(X/Y/Z)	 2.2Hz3min.trc
DataRate	CameraRate	NumFrames	NumMarkers	Units	OrigDataRate	OrigDataStartFrame	OrigNumFrames
200	200	8	43	m	200	126	1000
Frame#	Time	C7			LSH			RSH			MAN			RASI			LASI			HIPR			HIPL			RPSI			LPSI			COX			RTHI1			RTHI2			RTHI3			RTHI4			RLKN			RMKN			RSHA1			RSHA2			RSHA3			RSHA4			RLMAL			RMMAL			RHEEL			RMET5			RMET1			RTOE			LTHI1			LTHI2			LTHI3			LTHI4			LLKN			LMKN			LSHA1			LSHA2			LSHA3			LSHA4			LLMAL			LMMAL			LHEEL			LMET5			LMET1			LTOE			
		X1	Y1	Z1	X2	Y2	Z2	X3	Y3	Z3	X4	Y4	Z4	X5	Y5	Z5	X6	Y6	Z6	X7	Y7	Z7	X8	Y8	Z8	X9	Y9	Z9	X10	Y10	Z10	X11	Y11	Z11	X12	Y12	Z12	X13	Y13	Z13	X14	Y14	Z14	X15	Y15	Z15	X16	Y16	Z16	X17	Y17	Z17	X18	Y18	Z18	X19	Y19	Z19	X20	Y20	Z20	X21	Y21	Z21	X22	Y22	Z22	X23	Y23	Z23	X24	Y24	Z24	X25	Y25	Z25	X26	Y26	Z26	X27	Y27	Z27	X28	Y28	Z28	X29	Y29	Z29	X30	Y30	Z30	X31	Y31	Z31	X32	Y32	Z32	X33	Y33	Z33	X34	Y34	Z34	X35	Y35	Z35	X36	Y36	Z36	X37	Y37	Z37	X38	Y38	Z38	X39	Y39	Z39	X40	Y40	Z40	X41	Y41	Z41	X42	Y42	Z42	X43	Y43	Z43	
126	0.6300	-0.272155	1.493446	-0.541588	-0.223298	1.497901	-0.721352	-0.223344	1.485473	-0.361233	-0.141699	1.437395	-0.537470	-0.175734	1.003843	-0.438102	-0.155882	1.010759	-0.652245	-0.220712	1.054093	-0.408097	-0.212040	1.057812	-0.685977	-0.317402	1.057489	-0.494159	-0.305806	1.060896	-0.606439	-0.314148	1.060144	-0.552732	-0.273940	0.806738	-0.367372	-0.269492	0.745582	-0.363914	-0.198195	0.759174	-0.360916	-0.209646	0.817542	-0.365993	-0.223378	0.499244	-0.370755	-0.199988	0.482875	-0.468071	-0.350240	0.343577	-0.391895	-0.362529	0.304922	-0.405820	-0.309920	0.286209	-0.381167	-0.300106	0.324591	-0.371050	-0.371977	0.148981	-0.409908	-0.335542	0.155993	-0.482809	-0.416861	0.143545	-0.463216	-0.304512	0.049619	-0.376510	-0.246951	0.048193	-0.435287	-0.223197	0.040277	-0.427246	-0.238217	0.784927	-0.737398	-0.232380	0.725605	-0.739387	-0.160451	0.734929	-0.730197	-0.175120	0.795222	-0.729941	-0.191373	0.502054	-0.725905	-0.206586	0.489987	-0.621341	-0.308729	0.321132	-0.750191	-0.323451	0.283281	-0.744611	-0.264175	0.266601	-0.739613	-0.256038	0.309338	-0.745561	-0.326480	0.152142	-0.744450	-0.332464	0.154293	-0.666666	-0.390236	0.145318	-0.715437	-0.247781	0.046421	-0.739935	-0.225339	0.045493	-0.667026	-0.204257	0.037642	-0.669933	
127	0.6350	-0.272673	1.489783	-0.541439	-0.223750	1.494070	-0.721417	-0.223562	1.481611	-0.360994	-0.142305	1.433713	-0.537435	-0.176114	1.000352	-0.437989	-0.156354	1.007312	-0.652197	-0.221182	1.050463	-0.407977	-0.212638	1.054258	-0.685891	-0.317916	1.053709	-0.493975	-0.306393	1.057179	-0.606269	-0.314692	1.056397	-0.552550	-0.273603	0.802972	-0.367059	-0.268951	0.741814	-0.363653	-0.197690	0.755651	-0.360840	-0.209346	0.813979	-0.365909	-0.222205	0.495551	-0.370553	-0.199318	0.479328	-0.467952	-0.350472	0.341042	-0.391379	-0.363121	0.302502	-0.405545	-0.310520	0.283189	-0.381303	-0.300339	0.321450	-0.371075	-0.374017	0.146765	-0.410212	-0.337962	0.153759	-0.483355	-0.419107	0.141426	-0.463364	-0.306668	0.047213	-0.377182	-0.248290	0.046557	-0.436163	-0.223998	0.037892	-0.428415	-0.237779	0.781284	-0.737270	-0.231777	0.721984	-0.739264	-0.159907	0.731491	-0.729797	-0.174744	0.791750	-0.729565	-0.190223	0.498522	-0.725658	-0.205906	0.486557	-0.621118	-0.309134	0.318459	-0.750472	-0.324221	0.280742	-0.744738	-0.265114	0.263580	-0.739390	-0.256573	0.306230	-0.745537	-0.328718	0.149830	-0.744436	-0.334632	0.152002	-0.666646	-0.392387	0.142500	-0.715373	-0.248977	0.045099	-0.740813	-0.225994	0.045059	-0.667415	-0.204568	0.037510	-0.669837	
128	0.6400	-0.273181	1.485911	-0.541293	-0.224172	1.490028	-0.721472	-0.223729	1.477526	-0.360767	-0.142846	1.429723	-0.537395	-0.176512	0.996633	-0.437869	-0.156851	1.003619	-0.652156	-0.221674	1.046594	-0.407847	-0.213272	1.050449	-0.685823	-0.318460	1.049691	-0.493791	-0.307017	1.053218	-0.606097	-0.315271	1.052408	-0.552368	-0.273320	0.798968	-0.366727	-0.268441	0.737809	-0.363401	-0.197223	0.751910	-0.360724	-0.209101	0.810205	-0.365761	-0.221048	0.491645	-0.370317	-0.198688	0.475569	-0.467787	-0.350735	0.338269	-0.390865	-0.363753	0.299827	-0.405286	-0.311165	0.279962	-0.381419	-0.300631	0.318109	-0.371097	-0.376072	0.144371	-0.410420	-0.340368	0.151376	-0.483874	-0.421310	0.138830	-0.463497	-0.308417	0.044994	-0.377407	-0.248991	0.045411	-0.436693	-0.223902	0.036074	-0.429523	-0.237392	0.777386	-0.737189	-0.231198	0.718118	-0.739204	-0.159394	0.727824	-0.729490	-0.174420	0.788041	-0.729262	-0.189007	0.494732	-0.725429	-0.205109	0.482865	-0.620940	-0.309585	0.315557	-0.750751	-0.325048	0.277993	-0.744840	-0.266130	0.260326	-0.739163	-0.257166	0.302889	-0.745534	-0.330886	0.147357	-0.744390	-0.336824	0.149538	-0.666569	-0.394541	0.139346	-0.715458	-0.249460	0.044267	-0.741716	-0.226005	0.044758	-0.667770	-0.204324	0.037339	-0.669847	
129	0.6450	-0.273678	1.481841	-0.541147	-0.224567	1.485788	-0.721520	-0.223852	1.473233	-0.360551	-0.143338	1.425457	-0.537353	-0.176926	0.992706	-0.437747	-0.157374	0.999700	-0.652122	-0.222185	1.042489	-0.407711	-0.213942	1.046389	-0.685778	-0.319029	1.045443	-0.493610	-0.307681	1.049023	-0.605932	-0.315902	1.048190	-0.552214	-0.273090	0.794744	-0.366391	-0.267960	0.733588	-0.363171	-0.196797	0.747981	-0.360559	-0.208920	0.806237	-0.365548	-0.219929	0.487546	-0.370025	-0.198073	0.471611	-0.467572	-0.351043	0.335272	-0.390401	-0.364411	0.296935	-0.405043	-0.311847	0.276552	-0.381520	-0.300989	0.314585	-0.371105	-0.378136	0.141841	-0.410521	-0.342715	0.148840	-0.484361	-0.423503	0.135853	-0.463642	-0.309650	0.042960	-0.377248	-0.249144	0.044918	-0.436811	-0.223211	0.035110	-0.430233	-0.237075	0.773242	-0.737151	-0.230660	0.714012	-0.739208	-0.158924	0.723945	-0.729277	-0.174166	0.784106	-0.729037	-0.187731	0.490696	-0.725225	-0.204175	0.478912	-0.620798	-0.310062	0.312459	-0.750994	-0.325902	0.275036	-0.744912	-0.267181	0.256850	-0.738953	-0.257793	0.299319	-0.745531	-0.332878	0.144738	-0.744332	-0.339011	0.146902	-0.666426	-0.396647	0.135970	-0.715739	-0.249479	0.043828	-0.742445	-0.225742	0.044632	-0.668092	-0.203848	0.037149	-0.669659	
130	0.6500	-0.274158	1.477582	-0.541005	-0.224944	1.481359	-0.721562	-0.223929	1.468757	-0.360334	-0.143789	1.420943	-0.537310	-0.177358	0.988581	-0.437627	-0.157924	0.995562	-0.652098	-0.222717	1.038163	-0.407575	-0.214653	1.042089	-0.685755	-0.319620	1.040982	-0.493444	-0.308373	1.044603	-0.605771	-0.316559	1.043743	-0.552068	-0.272914	0.790323	-0.366110	-0.267507	0.729183	-0.362970	-0.196412	0.743897	-0.360335	-0.208800	0.802103	-0.365274	-0.218864	0.483274	-0.369658	-0.197457	0.467477	-0.467279	-0.351392	0.332080	-0.390028	-0.365110	0.293870	-0.404846	-0.312579	0.272971	-0.381621	-0.301407	0.310871	-0.371160	-0.380152	0.139152	-0.410581	-0.344946	0.146136	-0.484823	-0.425660	0.132573	-0.463724	-0.310511	0.041269	-0.376672	-0.249099	0.044901	-0.436431	-0.222230	0.034750	-0.430552	-0.236846	0.768859	-0.737144	-0.230182	0.709667	-0.739273	-0.158511	0.719864	-0.729160	-0.173997	0.779964	-0.728879	-0.186404	0.486426	-0.725056	-0.203089	0.474705	-0.620696	-0.310540	0.309178	-0.751184	-0.326753	0.271904	-0.744971	-0.268246	0.253188	-0.738774	-0.258418	0.295549	-0.745521	-0.334670	0.141959	-0.744276	-0.341216	0.144077	-0.666318	-0.398715	0.132516	-0.716253	-0.249292	0.043564	-0.742822	-0.225589	0.044434	-0.668192	-0.203522	0.036973	-0.669338	
131	0.6550	-0.274615	1.473155	-0.540869	-0.225306	1.476748	-0.721604	-0.223980	1.464137	-0.360105	-0.144190	1.416199	-0.537265	-0.177811	0.984277	-0.437517	-0.158496	0.991220	-0.652088	-0.223273	1.033625	-0.407443	-0.215407	1.037555	-0.685769	-0.320233	1.036328	-0.493298	-0.309096	1.039967	-0.605606	-0.317247	1.039081	-0.551940	-0.272793	0.785736	-0.365895	-0.267085	0.724630	-0.362801	-0.196074	0.739680	-0.360053	-0.208736	0.797834	-0.364950	-0.217865	0.478859	-0.369197	-0.196810	0.463182	-0.466883	-0.351777	0.328734	-0.389781	-0.365857	0.290670	-0.404705	-0.313379	0.269267	-0.381713	-0.301884	0.307022	-0.371247	-0.382112	0.136358	-0.410600	-0.347061	0.143277	-0.485275	-0.427808	0.129112	-0.463757	-0.311187	0.039852	-0.375829	-0.249272	0.044772	-0.436002	-0.221685	0.034464	-0.430637	-0.236708	0.764253	-0.737143	-0.229776	0.705096	-0.739370	-0.158167	0.715591	-0.729139	-0.173918	0.775620	-0.728782	-0.185026	0.481937	-0.724924	-0.201867	0.470257	-0.620632	-0.310994	0.305745	-0.751344	-0.327586	0.268639	-0.745034	-0.269283	0.249393	-0.738634	-0.259025	0.291615	-0.745507	-0.336321	0.139036	-0.744247	-0.343460	0.141106	-0.666257	-0.400761	0.129016	-0.716934	-0.249215	0.043120	-0.742988	-0.225712	0.044120	-0.667890	-0.203461	0.036845	-0.668948	
132	0.6600	-0.275045	1.468589	-0.540734	-0.225654	1.471983	-0.721644	-0.224004	1.459374	-0.359897	-0.144533	1.411238	-0.537214	-0.178279	0.979814	-0.437421	-0.159089	0.986688	-0.652094	-0.223847	1.028891	-0.407319	-0.216208	1.032802	-0.685826	-0.320863	1.031492	-0.493173	-0.309839	1.035131	-0.605449	-0.317955	1.034218	-0.551830	-0.272712	0.781024	-0.365756	-0.266690	0.719964	-0.362658	-0.195777	0.735357	-0.359715	-0.208722	0.793456	-0.364581	-0.216925	0.474316	-0.368637	-0.196090	0.458735	-0.466362	-0.352200	0.325272	-0.389648	-0.366654	0.287381	-0.404648	-0.314262	0.265493	-0.381795	-0.302412	0.303077	-0.371349	-0.384056	0.133491	-0.410626	-0.349129	0.140330	-0.485734	-0.429963	0.125584	-0.463744	-0.311808	0.038546	-0.375062	-0.249635	0.044636	-0.435853	-0.221585	0.034242	-0.430311	-0.236666	0.759433	-0.737123	-0.229439	0.700314	-0.739459	-0.157889	0.711137	-0.729207	-0.173927	0.771088	-0.728739	-0.183606	0.477263	-0.724833	-0.200526	0.465598	-0.620614	-0.311412	0.302200	-0.751501	-0.328403	0.265289	-0.745127	-0.270309	0.245484	-0.738531	-0.259609	0.287549	-0.745490	-0.337944	0.135972	-0.744259	-0.345743	0.138017	-0.666278	-0.402802	0.125488	-0.717666	-0.249365	0.042542	-0.743131	-0.225946	0.043901	-0.667516	-0.203515	0.036729	-0.668511	
133	0.6650	-0.275440	1.463901	-0.540595	-0.225987	1.467082	-0.721684	-0.224000	1.454492	-0.359695	-0.144866	1.406135	-0.537166	-0.178765	0.975214	-0.437342	-0.159704	0.981975	-0.652121	-0.224436	1.023985	-0.407214	-0.217054	1.027836	-0.685920	-0.321515	1.026501	-0.493082	-0.310597	1.030110	-0.605309	-0.318709	1.029179	-0.551773	-0.272663	0.776220	-0.365651	-0.266326	0.715212	-0.362536	-0.195522	0.730962	-0.359327	-0.208751	0.788994	-0.364185	-0.216013	0.469670	-0.367994	-0.195241	0.454159	-0.465727	-0.352664	0.321785	-0.389572	-0.367496	0.284063	-0.404659	-0.315236	0.261688	-0.381876	-0.302993	0.299084	-0.371430	-0.386018	0.130605	-0.410711	-0.351243	0.137359	-0.486243	-0.432112	0.122064	-0.463665	-0.312426	0.037450	-0.374461	-0.250188	0.044596	-0.435800	-0.221819	0.034117	-0.429733	-0.236702	0.754412	-0.737057	-0.229164	0.695328	-0.739507	-0.157660	0.706519	-0.729343	-0.174009	0.766382	-0.728747	-0.182155	0.472436	-0.724793	-0.199067	0.460757	-0.620644	-0.311794	0.298584	-0.751677	-0.329200	0.261883	-0.745274	-0.271338	0.241481	-0.738453	-0.260174	0.283393	-0.745478	-0.339654	0.132801	-0.744292	-0.348044	0.134852	-0.666365	-0.404878	0.121919	-0.718296	-0.249726	0.042015	-0.743417	-0.226205	0.043794	-0.667378	-0.203514	0.036650	-0.668217	
